<?xml version="1.0" encoding="UTF-8"?>
<svg xmlns="http://www.w3.org/2000/svg" xmlns:xlink="http://www.w3.org/1999/xlink" width="20" height="20" version="1.1">
<g id="surface1">
<path style=" stroke:none;fill-rule:nonzero;fill:rgb(71.764706%,34.901961%,19.215686%);fill-opacity:1;" d="M 15.363281 0 L 4.601562 0 L 4.601562 20 L 15.402344 20 L 15.402344 0 Z M 10.601562 1.601562 L 10.601562 1.273438 L 13.472656 1.273438 L 13.472656 10.144531 L 10.597656 10.144531 L 10.597656 1.601562 Z M 6.492188 1.601562 L 6.492188 1.273438 L 9.363281 1.273438 L 9.363281 10.144531 L 6.488281 10.144531 L 6.488281 1.601562 Z M 13.472656 18.726562 L 6.492188 18.726562 L 6.492188 11.417969 L 13.472656 11.417969 C 13.472656 11.417969 13.472656 18.726562 13.472656 18.726562 Z M 14.054688 11.5625 C 13.617188 11.5625 13.253906 11.199219 13.253906 10.761719 C 13.253906 10.324219 13.617188 9.960938 14.054688 9.960938 C 14.492188 9.960938 14.855469 10.324219 14.855469 10.761719 C 14.855469 11.199219 14.492188 11.5625 14.054688 11.5625 Z M 14.054688 11.5625 "/>
<path style=" stroke:none;fill-rule:nonzero;fill:rgb(71.764706%,34.901961%,19.215686%);fill-opacity:1;" d="M 6.816406 1.601562 L 9.035156 1.601562 L 9.035156 9.855469 L 6.816406 9.855469 Z M 6.816406 1.601562 "/>
<path style=" stroke:none;fill-rule:nonzero;fill:rgb(71.764706%,34.901961%,19.215686%);fill-opacity:1;" d="M 10.925781 1.601562 L 13.144531 1.601562 L 13.144531 9.855469 L 10.925781 9.855469 Z M 10.925781 1.601562 "/>
<path style=" stroke:none;fill-rule:nonzero;fill:rgb(71.764706%,34.901961%,19.215686%);fill-opacity:1;" d="M 6.816406 11.746094 L 13.179688 11.746094 L 13.179688 18.402344 L 6.816406 18.402344 Z M 6.816406 11.746094 "/>
<path style=" stroke:none;fill-rule:nonzero;fill:rgb(71.764706%,34.901961%,19.215686%);fill-opacity:1;" d="M 14.527344 10.761719 C 14.527344 11.023438 14.316406 11.234375 14.054688 11.234375 C 13.792969 11.234375 13.582031 11.023438 13.582031 10.761719 C 13.582031 10.5 13.792969 10.289062 14.054688 10.289062 C 14.316406 10.289062 14.527344 10.5 14.527344 10.761719 Z M 14.527344 10.761719 "/>
</g>
</svg>
