<?xml version="1.0" encoding="UTF-8"?>
<svg xmlns="http://www.w3.org/2000/svg" xmlns:xlink="http://www.w3.org/1999/xlink" width="25" height="25" viewBox="0 0 25 25" version="1.1">
<defs>
<linearGradient id="linear0" gradientUnits="userSpaceOnUse" x1="34.8027" y1="143.5098" x2="191.7305" y2="143.5098" gradientTransform="matrix(0.0976562,0,0,0.0976562,0,0)">
<stop offset="0" style="stop-color:rgb(99.607843%,99.607843%,99.607843%);stop-opacity:1;"/>
<stop offset="1" style="stop-color:rgb(88.627451%,88.627451%,88.627451%);stop-opacity:1;"/>
</linearGradient>
<filter id="alpha" filterUnits="objectBoundingBox" x="0%" y="0%" width="100%" height="100%">
  <feColorMatrix type="matrix" in="SourceGraphic" values="0 0 0 0 1 0 0 0 0 1 0 0 0 0 1 0 0 0 1 0"/>
</filter>
<mask id="mask0">
  <g filter="url(#alpha)">
<rect x="0" y="0" width="25" height="25" style="fill:rgb(0%,0%,0%);fill-opacity:0.2;stroke:none;"/>
  </g>
</mask>
<clipPath id="clip1">
  <rect x="0" y="0" width="25" height="25"/>
</clipPath>
<g id="surface5" clip-path="url(#clip1)">
<path style=" stroke:none;fill-rule:nonzero;fill:rgb(17.254902%,17.254902%,17.254902%);fill-opacity:1;" d="M 18.636719 10.109375 L 11.777344 19.960938 C 11.636719 20.160156 11.355469 20.417969 11.144531 20.527344 L 6.359375 23.023438 L 3.671875 21.4375 L 3.636719 21.734375 L 6.359375 23.347656 L 11.144531 20.851562 C 11.355469 20.742188 11.636719 20.484375 11.777344 20.285156 L 18.636719 10.433594 C 18.730469 10.296875 18.746094 10.140625 18.691406 10.011719 C 18.679688 10.042969 18.664062 10.078125 18.636719 10.109375 Z M 18.636719 10.109375 "/>
</g>
<linearGradient id="linear1" gradientUnits="userSpaceOnUse" x1="34.8027" y1="224.2637" x2="71.4253" y2="224.2637" gradientTransform="matrix(0.0976562,0,0,0.0976562,0,0)">
<stop offset="0" style="stop-color:rgb(99.607843%,99.607843%,99.607843%);stop-opacity:1;"/>
<stop offset="1" style="stop-color:rgb(88.627451%,88.627451%,88.627451%);stop-opacity:1;"/>
</linearGradient>
<linearGradient id="linear2" gradientUnits="userSpaceOnUse" x1="96.3818" y1="274.0938" x2="33.6416" y2="265.5382" gradientTransform="matrix(-0.078623,-0.0547754,-0.0347949,0.0499512,28.314717,3.069736)">
<stop offset="0" style="stop-color:rgb(97.647059%,66.666667%,17.647059%);stop-opacity:1;"/>
<stop offset="1" style="stop-color:rgb(87.843137%,56.862745%,8.235294%);stop-opacity:1;"/>
</linearGradient>
<linearGradient id="linear3" gradientUnits="userSpaceOnUse" x1="120.4478" y1="272.71" x2="77.6695" y2="265.5803" gradientTransform="matrix(-0.078623,-0.0547754,-0.0347949,0.0499512,28.314717,3.069736)">
<stop offset="0" style="stop-color:rgb(97.647059%,66.666667%,17.647059%);stop-opacity:1;"/>
<stop offset="1" style="stop-color:rgb(87.843137%,56.862745%,8.235294%);stop-opacity:1;"/>
</linearGradient>
<linearGradient id="linear4" gradientUnits="userSpaceOnUse" x1="135.9199" y1="267.8887" x2="103.1608" y2="269.313" gradientTransform="matrix(-0.078623,-0.0547754,-0.0347949,0.0499512,28.314717,3.069736)">
<stop offset="0" style="stop-color:rgb(97.647059%,66.666667%,17.647059%);stop-opacity:1;"/>
<stop offset="1" style="stop-color:rgb(87.843137%,56.862745%,8.235294%);stop-opacity:1;"/>
</linearGradient>
<linearGradient id="linear5" gradientUnits="userSpaceOnUse" x1="86.4556" y1="169.4131" x2="86.4556" y2="247.8184" gradientTransform="matrix(-0.078623,-0.0547754,-0.0587402,0.0843164,37.04707,-9.527539)">
<stop offset="0" style="stop-color:rgb(94.509804%,32.941176%,32.941176%);stop-opacity:1;"/>
<stop offset="1" style="stop-color:rgb(85.098039%,23.137255%,23.137255%);stop-opacity:1;"/>
</linearGradient>
<clipPath id="clip2">
  <path d="M 4 3 L 20 3 L 20 21 L 4 21 Z M 4 3 "/>
</clipPath>
<clipPath id="clip3">
  <path d="M 19.003906 7.523438 L 17.4375 6.429688 L 13.847656 3.933594 L 13.851562 3.933594 L 13.738281 3.855469 C 13.121094 3.425781 12.394531 3.394531 12.121094 3.785156 L 4.1875 15.175781 L 6.535156 16.816406 L 9 18.53125 L 11.691406 20.40625 L 19.625 9.015625 C 19.902344 8.625 19.621094 7.949219 19.003906 7.523438 Z M 19.003906 7.523438 "/>
</clipPath>
<mask id="mask1">
  <g filter="url(#alpha)">
<rect x="0" y="0" width="25" height="25" style="fill:rgb(0%,0%,0%);fill-opacity:0.101961;stroke:none;"/>
  </g>
</mask>
<clipPath id="clip4">
  <rect x="0" y="0" width="25" height="25"/>
</clipPath>
<g id="surface8" clip-path="url(#clip4)">
<path style=" stroke:none;fill-rule:nonzero;fill:rgb(17.254902%,17.254902%,17.254902%);fill-opacity:1;" d="M 19.707031 9.4375 L 11.972656 4.054688 L 12.851562 2.792969 L 20.585938 8.175781 Z M 19.707031 9.4375 "/>
</g>
<linearGradient id="linear6" gradientUnits="userSpaceOnUse" x1="134.2139" y1="237.8271" x2="48.6819" y2="237.8271" gradientTransform="matrix(-0.078623,-0.0547754,-0.0587402,0.0843164,37.04707,-9.527539)">
<stop offset="0" style="stop-color:rgb(99.607843%,99.607843%,99.607843%);stop-opacity:1;"/>
<stop offset="1" style="stop-color:rgb(88.627451%,88.627451%,88.627451%);stop-opacity:1;"/>
</linearGradient>
<linearGradient id="linear7" gradientUnits="userSpaceOnUse" x1="59.2163" y1="201.1963" x2="104.4723" y2="256.2029" gradientTransform="matrix(-0.078623,-0.0547754,-0.0587402,0.0843164,37.04707,-9.527539)">
<stop offset="0" style="stop-color:rgb(99.607843%,99.607843%,99.607843%);stop-opacity:1;"/>
<stop offset="1" style="stop-color:rgb(88.627451%,88.627451%,88.627451%);stop-opacity:1;"/>
</linearGradient>
<mask id="mask2">
  <g filter="url(#alpha)">
<rect x="0" y="0" width="25" height="25" style="fill:rgb(0%,0%,0%);fill-opacity:0.2;stroke:none;"/>
  </g>
</mask>
<clipPath id="clip5">
  <rect x="0" y="0" width="25" height="25"/>
</clipPath>
<g id="surface11" clip-path="url(#clip5)">
<path style=" stroke:none;fill-rule:nonzero;fill:rgb(6.666667%,6.666667%,6.666667%);fill-opacity:1;" d="M 3.269531 24.628906 C 3.117188 24.707031 3 24.683594 2.953125 24.574219 L 2.933594 24.734375 C 2.910156 24.964844 3.058594 25.066406 3.269531 24.953125 L 6.976562 23.023438 C 6.914062 22.949219 6.851562 22.871094 6.792969 22.796875 Z M 3.269531 24.628906 "/>
</g>
</defs>
<g id="surface1">
<path style=" stroke:none;fill-rule:nonzero;fill:url(#linear0);" d="M 3.398438 20.777344 L 3.972656 15.847656 C 3.996094 15.609375 4.132812 15.253906 4.273438 15.054688 L 11.132812 5.203125 C 11.273438 5 11.535156 4.945312 11.722656 5.074219 L 18.558594 9.835938 C 18.742188 9.96875 18.777344 10.230469 18.636719 10.433594 L 11.777344 20.285156 C 11.636719 20.484375 11.355469 20.742188 11.144531 20.851562 L 6.976562 23.023438 "/>
<use xlink:href="#surface5" mask="url(#mask0)"/>
<path style=" stroke:none;fill-rule:nonzero;fill:url(#linear1);" d="M 6.976562 23.023438 L 3.398438 20.777344 Z M 6.976562 23.023438 "/>
<path style=" stroke:none;fill-rule:nonzero;fill:url(#linear2);" d="M 17.4375 6.429688 L 19.003906 7.523438 C 19.621094 7.949219 19.902344 8.625 19.625 9.015625 L 11.691406 20.40625 L 9 18.53125 Z M 17.4375 6.429688 "/>
<path style=" stroke:none;fill-rule:nonzero;fill:url(#linear3);" d="M 17.4375 6.429688 L 13.847656 3.933594 C 14.464844 4.359375 14.746094 5.03125 14.476562 5.421875 L 6.535156 16.816406 L 9 18.53125 Z M 17.4375 6.429688 "/>
<path style=" stroke:none;fill-rule:nonzero;fill:url(#linear4);" d="M 13.738281 3.855469 L 14.96875 4.714844 L 6.535156 16.816406 L 4.1875 15.175781 L 12.121094 3.785156 C 12.394531 3.394531 13.121094 3.425781 13.738281 3.855469 Z M 13.738281 3.855469 "/>
<path style=" stroke:none;fill-rule:nonzero;fill:url(#linear5);" d="M 16.238281 0.230469 L 21.507812 3.902344 C 22.125 4.328125 22.25 5.222656 21.792969 5.878906 L 20.113281 8.285156 L 12.609375 3.054688 L 14.285156 0.648438 C 14.746094 -0.0078125 15.625 -0.199219 16.238281 0.230469 Z M 16.238281 0.230469 "/>
<g clip-path="url(#clip2)" clip-rule="nonzero">
<g clip-path="url(#clip3)" clip-rule="nonzero">
<use xlink:href="#surface8" mask="url(#mask1)"/>
</g>
</g>
<path style=" stroke:none;fill-rule:nonzero;fill:url(#linear6);" d="M 19.707031 9.113281 L 11.972656 3.726562 L 12.851562 2.46875 L 20.585938 7.851562 Z M 19.707031 9.113281 "/>
<path style=" stroke:none;fill-rule:nonzero;fill:url(#linear7);" d="M 20.121094 8.515625 L 12.386719 3.132812 L 12.851562 2.46875 L 20.585938 7.851562 Z M 20.121094 8.515625 "/>
<path style=" stroke:none;fill-rule:nonzero;fill:rgb(17.254902%,17.254902%,17.254902%);fill-opacity:1;" d="M 5.625 21.710938 C 6.164062 22.082031 6.613281 22.535156 6.976562 23.023438 L 3.269531 24.953125 C 3.058594 25.066406 2.910156 24.964844 2.933594 24.734375 L 3.398438 20.777344 C 4.160156 20.917969 4.925781 21.222656 5.625 21.710938 Z M 5.625 21.710938 "/>
<use xlink:href="#surface11" mask="url(#mask2)"/>
</g>
</svg>
