<?xml version="1.0" encoding="UTF-8"?>
<svg xmlns="http://www.w3.org/2000/svg" xmlns:xlink="http://www.w3.org/1999/xlink" width="20" height="20" viewBox="0 0 20 20" version="1.1">
<g id="surface1">
<path style=" stroke:none;fill-rule:nonzero;fill:rgb(27.843137%,13.333333%,7.45098%);fill-opacity:1;" d="M 6.773438 2.210938 C 5.828125 2.222656 4.765625 2.542969 3.800781 3.144531 C 2.1875 4.144531 0.894531 5.867188 0.839844 8 C 1.738281 8.90625 2.292969 10.101562 2.742188 11.371094 C 4.21875 8.421875 6.789062 6.984375 8.769531 7.105469 C 8.292969 5.695312 8.382812 4.085938 8.367188 2.574219 C 7.964844 2.351562 7.484375 2.230469 6.960938 2.214844 C 6.902344 2.210938 6.835938 2.210938 6.773438 2.210938 Z M 8.445312 7.835938 C 7 7.910156 5.023438 8.953125 3.710938 11.121094 C 4.695312 13.339844 6.003906 15.640625 7.410156 17.1875 C 8.617188 16.761719 10.253906 15.984375 11.828125 15.0625 C 11.058594 13.273438 11.210938 11.460938 11.890625 10.027344 C 11.507812 10.046875 11.152344 10.007812 10.824219 9.914062 C 10.714844 9.886719 10.609375 9.847656 10.507812 9.808594 L 10.523438 9.832031 C 10.324219 9.949219 10.027344 10.234375 9.789062 10.574219 C 9.546875 10.917969 9.355469 11.320312 9.289062 11.65625 L 8.574219 11.519531 C 8.667969 11.039062 8.902344 10.566406 9.191406 10.15625 C 9.386719 9.878906 9.601562 9.628906 9.832031 9.433594 C 9.597656 9.265625 9.378906 9.066406 9.179688 8.84375 C 8.402344 9.199219 7.609375 10.070312 7.488281 10.804688 L 6.769531 10.683594 C 6.941406 9.652344 7.777344 8.730469 8.71875 8.257812 C 8.625 8.121094 8.535156 7.980469 8.445312 7.835938 Z M 15.703125 7.945312 C 15.675781 7.945312 15.644531 7.945312 15.617188 7.945312 C 15.160156 7.964844 14.703125 8.117188 14.265625 8.378906 C 12.527344 9.417969 11.273438 12.25 12.597656 15.003906 L 12.878906 15.285156 L 12.480469 15.527344 C 10.664062 16.617188 8.765625 17.519531 7.371094 17.96875 L 7.855469 18.667969 C 11.457031 17.34375 16.160156 14.621094 19.214844 12.191406 C 18.691406 10.058594 17.851562 8.859375 16.984375 8.324219 C 16.566406 8.0625 16.136719 7.945312 15.703125 7.945312 Z M 15.703125 7.945312 "/>
</g>
</svg>
